<?xml version="1.0" encoding="utf-8" ?><svg xmlns="http://www.w3.org/2000/svg" xmlns:xlink="http://www.w3.org/1999/xlink" width="1254" height="1254" viewBox="0 0 1254 1254"><path fill="#c17f59" d="M295.682 488.445C295.204 476.738 295.473 463.724 295.478 451.936L295.495 389.29L295.485 355.571C295.473 348.421 295.057 339.655 296.3 332.722C297.56 325.7 302.155 317.854 306.779 312.691C318.574 299.519 337.181 297.527 352.704 304.721C357.49 306.939 362.501 312.003 366.553 315.513C385.161 333.364 403.466 351.624 421.797 369.763L535.969 483.609L582.39 530.005C584.658 532.273 599.465 546.774 600.763 548.686C612.556 557.429 618.039 559.229 632.722 559.265C659.908 553.824 670.657 531.219 691.526 513.223L691.941 512.871C696.735 506.949 711.884 492.285 717.917 486.43C727.09 477.529 739.975 463.496 749.292 455.474C751.92 452.219 760.201 444.394 763.426 441.177L793.768 410.938L858.369 346.689C867.047 338.073 875.845 329.4 884.46 320.824C895.905 309.43 905.214 300.035 922.438 300.614C936.408 301.084 949.09 307.851 955.688 320.439C963.645 333.892 962.106 370.544 961.288 387.209C961.901 418.692 961.333 451.455 961.359 483.077C961.35 494.688 961.785 510.905 961.245 522.201C962.11 542.268 961.325 569.314 961.329 589.862L961.348 723.103L961.37 807.686C961.37 822.262 961.678 837.745 960.922 852.182C959.859 872.491 938.364 888.063 924.936 901.64C916.009 910.667 904.443 922.208 894.686 930.161C893.866 883.991 895.039 834.972 895.076 788.57L895.302 517.67C894.597 499.948 881.467 481.976 862.384 482.954C856.096 483.319 850.03 485.41 844.853 488.997C840.164 492.179 833.024 499.423 828.718 503.597C819.689 512.382 810.708 521.215 801.775 530.097C775.31 556.461 748.674 582.65 721.866 608.665C713.48 616.926 705.227 625.369 696.601 633.338C689.241 640.138 680.749 642.424 670.89 640.758C660.331 638.973 655.541 628.009 645.904 623.346C634.35 617.756 620.206 617.791 609.107 624.538C604.278 627.571 600.784 632.245 596.321 635.744C584.606 644.927 569.978 641.651 559.754 632.161C533.296 607.604 508.164 581.577 482.037 556.701C473.319 562.435 463.993 568.087 455.944 574.682C417.015 606.578 375.178 649.426 362.05 699.202L361.316 699.152C360.857 699.825 361.183 699.563 360.243 699.803C358.805 697.531 359.296 683.389 359.306 679.839C358.126 675.634 359.362 666.247 357.717 664.6C355.342 671.516 351.057 663.063 347.822 661.949C346.814 661.602 344.868 662.862 343.74 663.383L343.01 662.262L341.98 662.088L341.485 660.923C340.07 660.382 336.536 659.868 334.929 659.709C331.265 659.347 330.214 659.03 327.452 656.608C325.308 654.727 321.033 656.454 318.351 656.444C315.64 656.434 312.237 653.229 309.447 652.604C309.892 652.704 305.689 653.423 304.865 653.45C303.259 652.357 302.686 652.316 301.748 650.629C301.382 651.351 300.681 652.638 299.942 652.945C294.347 655.275 298.506 672.532 295.74 675.748C295.208 671.228 295.571 654.952 295.577 649.722L295.625 596.456L295.48 525.509C295.457 515.044 294.912 498.396 295.682 488.445Z"/><defs><linearGradient id="gradient_0" gradientUnits="userSpaceOnUse" x1="400.27835" y1="488.75696" x2="464.25665" y2="362.82306"><stop offset="0" stop-color="#d4926a"/><stop offset="1" stop-color="#e8b08a"/></linearGradient></defs><path fill="url(#gradient_0)" d="M295.682 488.445C295.204 476.738 295.473 463.724 295.478 451.936L295.495 389.29L295.485 355.571C295.473 348.421 295.057 339.655 296.3 332.722C297.56 325.7 302.155 317.854 306.779 312.691C318.574 299.519 337.181 297.527 352.704 304.721C357.49 306.939 362.501 312.003 366.553 315.513C385.161 333.364 403.466 351.624 421.797 369.763L535.969 483.609L582.39 530.005C584.658 532.273 599.465 546.774 600.763 548.686L600.169 549.228C597.853 548.698 577.057 525.93 573.092 523.149C569.051 520.314 553.674 509.176 549.993 507.762C538.613 503.392 519.826 502.004 507.922 499.61C503.527 498.727 493.251 494.831 488.381 493.452C478.919 490.774 468.922 487.224 459.392 484.602C453.606 483.01 442.19 478.732 436.747 477.959C430.161 477.024 417.936 477.439 411.019 477.196C410.329 477.172 409.752 476.972 409.155 476.659C408.951 476.543 408.747 476.426 408.544 476.31C401.346 472.007 395.025 465.555 388.005 460.829C387.04 460.178 383.089 459.466 381.521 458.781C379.303 457.813 377.058 456.225 375.064 455.277C367.385 451.625 358.281 446.137 349.785 445.641C348.157 445.546 347.347 443.44 345.911 441.619C338.646 443.837 336.859 438.446 332.554 439.066C326.13 439.99 306.606 432.956 302.499 434.246C299.741 437.201 300.235 436.816 296.876 437.055C294.972 442.474 297.71 468.162 296.712 475.205C296.126 479.334 297.665 483.82 295.682 488.445Z"/><defs><linearGradient id="gradient_1" gradientUnits="userSpaceOnUse" x1="875.39319" y1="654.76318" x2="979.60461" y2="890.20789"><stop offset="0" stop-color="#5a8f7b"/><stop offset="1" stop-color="#7aab96"/></linearGradient></defs><path fill="url(#gradient_1)" d="M895.302 517.67L895.407 518.263C897.431 530.281 896.678 551.202 896.659 564.237L895.828 659.297C895.829 663.062 895.408 679.417 896.086 681.378C896.395 680.328 896.65 679.021 896.855 678.255C898.303 672.831 900.05 673.8 902.698 666.946L903.263 666.929L904.128 668.591C905.779 668.953 908.404 670.004 909.32 668.89C911.007 666.842 912.567 664.441 914.468 662.545C914.469 662.545 918.776 661.425 918.776 661.425C921.281 658.643 931.361 649.872 933.009 647.47C937.245 641.293 939.976 636.349 945.005 630.605L945.95 630.589L946.513 631.204C948.982 628.625 946.463 624.362 950.912 623.95L954.38 625.565C957.043 623.666 954.974 620.98 956.718 620.352C957.56 620.048 958.758 618.94 959.52 618.312L959.696 620.048C960.338 616.345 959.877 603.547 959.879 598.991L960.036 555.631C960.065 549.842 959.787 540.038 960.21 534.554C960.46 530.216 960.695 526.508 961.245 522.201C962.11 542.268 961.325 569.314 961.329 589.862L961.348 723.103L961.37 807.686C961.37 822.262 961.678 837.745 960.922 852.182C959.859 872.491 938.364 888.063 924.936 901.64C916.009 910.667 904.443 922.208 894.686 930.161C893.866 883.991 895.039 834.972 895.076 788.57L895.302 517.67Z"/><defs><linearGradient id="gradient_2" gradientUnits="userSpaceOnUse" x1="424.90128" y1="525.59259" x2="341.8631" y2="678.89783"><stop offset="0" stop-color="#1a1816"/><stop offset="1" stop-color="#38342e"/></linearGradient></defs><path fill="url(#gradient_2)" d="M370.24 494.742C379.856 482.101 400.551 479.942 412.919 490.145C430.756 504.86 446.461 523.682 463.913 538.661L467.138 542.411C470.383 544.855 478.728 553.492 482.037 556.701C473.319 562.435 463.993 568.087 455.944 574.682C417.015 606.578 375.178 649.426 362.05 699.202L361.316 699.152C360.857 699.825 361.183 699.563 360.243 699.803C358.805 697.531 359.296 683.389 359.306 679.839C361.13 660.815 356.693 560.318 361.273 551.012C361.337 549.959 361.241 548.087 361.222 546.963C361.922 530.45 357.642 507.416 370.24 494.742Z"/><path fill="#2c2924" d="M370.24 494.742C379.856 482.101 400.551 479.942 412.919 490.145C430.756 504.86 446.461 523.682 463.913 538.661L467.138 542.411C467.434 544.66 475.542 552.099 477.818 554.422C467.632 562.279 458.739 560.377 446.412 559.857C443.515 559.542 439.953 558.643 437.457 557.116C417.671 545.017 398.72 531.539 379.012 519.314C374.504 516.518 368.241 509.78 364.921 505.596C366.677 501.749 369.171 498.6 370.24 494.742Z"/><path fill="#a86b4a" d="M361.273 551.012L361.216 648.795C361.211 663.731 360.596 684.756 361.316 699.152C360.857 699.825 361.183 699.563 360.243 699.803C358.805 697.531 359.296 683.389 359.306 679.839C361.13 660.815 356.693 560.318 361.273 551.012Z"/><path fill="#a86b4a" d="M749.292 455.474C751.92 452.219 760.201 444.394 763.426 441.177L793.768 410.938L858.369 346.689C867.047 338.073 875.845 329.4 884.46 320.824C895.905 309.43 905.214 300.035 922.438 300.614C936.408 301.084 949.09 307.851 955.688 320.439L955.47 322.586C950.497 313.475 933.447 298.117 922.528 302.348C923.306 303.45 922.852 302.926 923.911 303.901C923.881 305.246 923.35 306.707 922.482 307.76C919.28 311.4 916.252 314.479 913.117 318.258C907.413 325.138 903.26 332.955 897.9 340.014C890.07 350.326 877.475 359.128 867.944 367.88C862.503 372.876 857.327 377.317 851.75 382.094C849.261 384.044 841.902 387.46 838.667 389.504C834.336 392.241 829.945 395.01 825.624 397.78C821.595 400.363 814.976 400.142 810.855 403.021L809.896 402.688C809.287 401.228 809.057 400.543 808.204 399.199C802.662 403.564 792.581 414.126 787.352 419.363L751.062 455.782L749.292 455.474Z"/><path fill="#a86b4a" d="M955.688 320.439C963.645 333.892 962.106 370.544 961.288 387.209C961.901 418.692 961.333 451.455 961.359 483.077C961.35 494.688 961.785 510.905 961.245 522.201C960.695 526.508 960.46 530.216 960.21 534.554C958.384 517.293 959.127 492.023 958.963 473.91L958.152 365.75C958.148 357.19 961.334 344.58 959.671 336.811C958.878 333.104 957.591 325.26 955.47 322.586L955.688 320.439Z"/><path fill="#4a7568" d="M961.359 483.077L960.52 483.893L959.844 483.419C958.61 460.693 959.848 435.399 959.497 412.433C959.447 409.149 959.523 386.261 960.006 383.794C960.168 385.449 960.414 385.792 961.288 387.209C961.901 418.692 961.333 451.455 961.359 483.077Z"/><path fill="#a86b4a" d="M361.222 546.963C359.424 536.764 359.445 520.202 361.158 510.381C364.201 492.94 379.069 482.731 396.068 481.782C396.749 481.744 403.723 484.379 405.541 484.74L405.676 483.615C404.662 481.857 403.909 481.25 405.184 479.676C408.204 478.367 411.8 478.349 413.816 481.231C413.287 483.908 414.078 484.498 414.656 487.08C413.655 487.67 414.183 487.319 413.097 488.166C413.978 489.741 423.23 497.999 425.097 499.748C435.266 509.296 445.276 519.013 455.123 528.893C457.555 531.321 462.67 535.599 464.273 537.494L463.913 538.661C446.461 523.682 430.756 504.86 412.919 490.145C400.551 479.942 379.856 482.101 370.24 494.742C357.642 507.416 361.922 530.45 361.222 546.963Z"/><path fill="#a86b4a" d="M691.941 512.871L693.287 513.469C681.192 525.655 668.042 539.231 655.714 550.755L656.412 552.102C654.544 557.125 635.77 561.355 632.722 559.265C659.908 553.824 670.657 531.219 691.526 513.223L691.941 512.871Z"/><path fill="#5a8f7b" d="M295.74 675.748C298.506 672.532 294.347 655.275 299.942 652.945C300.681 652.638 301.382 651.351 301.748 650.629C302.686 652.316 303.259 652.357 304.865 653.45C305.689 653.423 309.892 652.704 309.447 652.604C312.237 653.229 315.64 656.434 318.351 656.444C321.033 656.454 325.308 654.727 327.452 656.608C330.214 659.03 331.265 659.347 334.929 659.709C336.536 659.868 340.07 660.382 341.485 660.923L341.98 662.088L343.01 662.262L343.74 663.383C344.868 662.862 346.814 661.602 347.822 661.949C351.057 663.063 355.342 671.516 357.717 664.6C359.362 666.247 358.126 675.634 359.306 679.839C359.296 683.389 358.805 697.531 360.243 699.803C361.183 699.563 360.857 699.825 361.316 699.152L362.05 699.202C360.705 714.664 361.463 738.842 361.509 754.991L361.609 869.071C361.611 884.997 362.446 912.177 361.405 927.121L361.319 928.791L360.502 928.993C355.932 926.194 308.553 879.62 304.525 874.368C294.03 864.372 295.419 845.183 295.501 832.086L295.637 795.219C295.66 756.606 294.649 714.132 295.74 675.748Z"/><path fill="#6b9e78" d="M304.525 874.368C307.974 874.705 310.067 879.19 312.605 880.438C324.171 886.129 350.069 921.859 359.663 924.429C362.115 921.218 359.921 908 360.486 904.003C361.879 894.144 358.768 816.856 360.67 813.381L360.653 813.388C361.759 820.498 361.068 834.911 361.071 842.502L361.1 896.745C361.111 905.903 360.788 918.226 361.405 927.121L361.319 928.791L360.502 928.993C355.932 926.194 308.553 879.62 304.525 874.368Z"/><path fill="#c17f59" d="M610.322 660.435C610.345 654.149 610.164 649.454 615.067 644.626C618.985 640.767 623.002 638.659 628.573 638.994C633.819 639.361 638.702 641.804 642.142 645.782C643.83 647.73 646.029 651.607 646.131 654.21C647.096 678.696 646.335 703.337 646.578 727.858C646.623 732.373 646.785 737.618 646.498 742.079C646.978 753.379 646.621 767.144 646.61 778.598L646.539 846.398L646.546 881.836C646.6 891.575 648.525 906.226 641.553 913.562C638.245 917.067 633.646 919.065 628.827 919.093C620.209 919.225 611.228 913.094 610.611 904.34C609.769 892.406 610.094 879.694 610.088 867.732L610.062 803.974L610.024 711.315C610.028 695.659 609.566 675.825 610.322 660.435Z"/><path fill="#a86b4a" d="M610.322 660.435C610.345 654.149 610.164 649.454 615.067 644.626C618.985 640.767 623.002 638.659 628.573 638.994C633.819 639.361 638.702 641.804 642.142 645.782C643.83 647.73 646.029 651.607 646.131 654.21C647.096 678.696 646.335 703.337 646.578 727.858C646.623 732.373 646.785 737.618 646.498 742.079C645.502 752.106 646.193 768.782 645.708 780.148C645.503 774.876 644.732 768.481 641.344 764.087C635.958 757.101 620.248 755.634 613.473 760.873C609.634 763.843 611.311 776.758 610.93 782.15C610.21 775.554 610.654 756.953 610.639 749.499L610.58 693.352C610.568 682.747 610.837 670.863 610.322 660.435Z"/><defs><linearGradient id="gradient_3" gradientUnits="userSpaceOnUse" x1="460.75327" y1="846.04309" x2="485.41882" y2="713.74493"><stop offset="0" stop-color="#a86b4a"/><stop offset="1" stop-color="#d4926a"/></linearGradient></defs><path fill="url(#gradient_3)" d="M456.909 701.081C457.058 695.617 458.258 691.703 462.309 687.702C465.725 684.286 470.386 682.409 475.216 682.504C491.655 682.942 492.872 698.987 492.658 711.275L492.799 797.38C492.803 803.741 493.238 829.677 492.336 834.999C491.745 838.658 489.999 842.033 487.354 844.63C484.01 847.91 478.895 849.933 474.22 849.782C469.33 849.583 464.715 847.464 461.377 843.884C459.548 841.894 457.491 838.366 457.378 835.579C455.89 798.812 457.194 761.758 456.746 724.923C456.649 717.023 456.69 708.976 456.909 701.081Z"/><path fill="#a86b4a" d="M456.909 701.081C457.058 695.617 458.258 691.703 462.309 687.702C465.725 684.286 470.386 682.409 475.216 682.504C491.655 682.942 492.872 698.987 492.658 711.275C491.506 714.624 491.993 722.219 490.979 724.544C486.527 718.663 473.693 714.025 466.9 710.793C465.941 710.337 460.228 710.005 458.809 709.936C457.106 708.43 459.938 705.729 456.909 701.081Z"/><path fill="#c17f59" d="M763.487 744.123C763.027 737.741 762.882 701.877 764.07 696.656C764.795 693.445 766.333 690.475 768.537 688.03C771.752 684.471 776.318 682.429 781.115 682.405C785.937 682.357 790.555 684.344 793.835 687.88C800.487 695.049 799.25 704.773 798.987 713.84C799.211 727.265 799.103 740.713 799.11 754.148C799.122 775.989 799.098 797.844 799.118 819.688C799.127 829.138 800.513 839.346 792.171 845.935C785.302 851.361 774.202 850.6 768.341 844.008C763.651 838.876 763.491 833.921 763.282 827.355C763.14 800.025 763.259 772.614 763.333 745.277C763.384 744.892 763.435 744.507 763.487 744.123Z"/><path fill="#a86b4a" d="M763.487 744.123C763.027 737.741 762.882 701.877 764.07 696.656C764.795 693.445 766.333 690.475 768.537 688.03C771.752 684.471 776.318 682.429 781.115 682.405C785.937 682.357 790.555 684.344 793.835 687.88C800.487 695.049 799.25 704.773 798.987 713.84C798.824 716.033 798.395 727.077 797.904 727.962C796.47 717.973 800.193 699.198 795.328 691.78C791.12 689.527 768.615 699.773 764.695 702.371C762.625 710.567 765.751 737.556 763.487 744.123Z"/><path fill="#c17f59" d="M686.372 761.525C685.899 753.845 685.435 725.222 687.014 718.576C687.737 715.42 689.292 712.515 691.517 710.163C698.087 703.212 711.251 703.203 717.164 710.183C725.665 720.218 722.682 745.015 722.498 757.883C722.656 775.167 722.706 792.451 722.647 809.736C722.644 825.659 727.007 852.895 703.844 853.159C681.297 853.416 686.385 821.297 686.252 806.577C686.12 791.96 685.691 775.911 686.372 761.525Z"/><path fill="#a86b4a" d="M686.372 761.525C685.899 753.845 685.435 725.222 687.014 718.576C687.737 715.42 689.292 712.515 691.517 710.163C698.087 703.212 711.251 703.203 717.164 710.183C725.665 720.218 722.682 745.015 722.498 757.883C722.276 759.679 722.193 761.716 721.42 763.299C721.249 759.22 721.168 755.574 721.264 751.497C721.345 748.061 722.292 742.512 721.727 739.428C710.712 734.981 703.735 735.122 694.073 742.642C691.686 744.5 690.607 745.935 687.618 746.818C687.612 748.933 687.723 766.131 687.326 766.676L686.372 761.525Z"/><path fill="#c17f59" d="M534.454 719.793C534.648 713.404 540.091 707.894 545.984 706.037C551.048 704.391 556.571 704.956 561.197 707.593C566.031 710.4 568.228 714.083 569.495 719.362C570.488 724.139 570.171 737.527 570.148 742.797L570 783.165L570.137 816.417C570.204 829.132 572.335 850.511 555.961 853.034C529.785 857.068 533.88 826.379 533.882 811.563L533.913 767.087L533.96 737.148C533.968 733.221 533.812 723.33 534.454 719.793Z"/><path fill="#a86b4a" d="M534.454 719.793C534.648 713.404 540.091 707.894 545.984 706.037C551.048 704.391 556.571 704.956 561.197 707.593C566.031 710.4 568.228 714.083 569.495 719.362C569.514 732.773 570.073 751.948 568.973 765.229C568.811 757.489 568.764 749.748 568.831 742.007C561.944 736.437 551.358 726.812 542.094 727.775C537.726 728.229 540.92 730.076 537.384 729.654L535.523 727.897C534.888 730.392 535.14 748.731 534.918 753.522C534.789 745.353 535.191 726.756 534.454 719.793Z"/><defs><linearGradient id="gradient_4" gradientUnits="userSpaceOnUse" x1="268.10757" y1="828.4303" x2="250.65416" y2="695.04559"><stop offset="0" stop-color="#4a7568"/><stop offset="1" stop-color="#c17f59"/></linearGradient></defs><path fill="url(#gradient_4)" d="M256.823 693.191C260.342 692.943 263.506 693.128 266.749 694.655C270.225 696.291 273.267 699.37 274.489 703.062C276.608 709.466 276.264 804.042 275.435 816.19C275.263 818.714 274.865 820.835 273.652 823.079C271.138 827.729 267.417 829.577 262.528 831.025C259.273 831.204 256.37 831.05 253.355 829.683C249.05 827.732 245.893 823.863 244.423 819.405C242.386 813.233 243.265 723.8 243.804 712.007C243.942 708.983 243.976 704.85 245.347 702.1C247.784 697.209 251.78 694.839 256.823 693.191Z"/><path fill="#a86b4a" d="M244.648 708.917C249.016 716.641 244.835 736.502 244.922 745.018L244.556 745.286C244.096 731.745 243.951 722.399 244.648 708.917Z"/><path fill="#5a8f7b" d="M992.465 693.237C995.868 692.81 998.691 692.741 1001.94 694C1005.88 695.528 1009.53 699.032 1010.99 703.045C1012.81 708.031 1012.76 801.549 1012.08 814.449C1011.95 816.922 1011.86 819.253 1010.84 821.54C1008.56 826.644 1005.06 828.679 1000.09 830.592C997.324 830.933 994.714 831.089 991.997 830.342C987.422 829.082 983.659 826.068 981.535 821.802C980.362 819.445 980.385 815.529 980.265 812.901C979.736 801.262 979.276 708.612 981.13 703.567C983.056 698.327 987.665 695.483 992.465 693.237Z"/><path fill="#c17f59" d="M405.004 723.858C408.533 723.484 411.883 723.582 415.202 724.958C418.84 726.467 422.508 729.937 423.931 733.653C426.674 740.817 426.948 789.551 423.652 796.273C421.146 801.385 416.506 803.742 411.413 805.599C385.068 807.865 390.929 776.131 390.662 759.304C390.428 744.503 387.445 729.074 405.004 723.858Z"/><path fill="#c17f59" d="M845.636 723.82C873.399 722.123 863.258 759.137 865.19 776.164C866.72 789.642 864.613 801.238 850.029 805.175C845.876 805.493 842.438 805.074 838.821 802.878C835.148 800.621 832.512 797.007 831.485 792.82C828.208 779.497 831.352 753.265 830.819 738.834C830.508 730.423 838.188 725.59 845.636 723.82Z"/><path fill="#c17f59" d="M199.339 733.659C214.483 732.758 217.896 745.444 216.781 757.963C215.419 773.265 222.676 789.452 203.261 795.151C184.481 795.577 185.011 776.504 185.404 763.266C185.804 749.78 183.125 738.084 199.339 733.659Z"/><path fill="#5a8f7b" d="M1050.89 733.673C1070.55 732.187 1070.14 748.868 1069.4 763.086C1068.69 776.608 1073.33 788.538 1057.35 794.731C1041.74 795.564 1037.14 784.471 1038.32 770.616C1039.63 755.127 1032.91 741.12 1050.89 733.673Z"/></svg>